<svg id="Layer_1" data-name="Layer 1" xmlns="http://www.w3.org/2000/svg" viewBox="0 0 1200 768"><defs><style>.cls-1{fill:none;stroke:#000;stroke-miterlimit:10;stroke-width:28px;}</style></defs><title>Artboard 1deneyimpaylas</title><path d="M261.41,691.93H233l46.39-29.38v21.13Zm18,29.44L233,691.93h28.4l18,8.83Z"/><path d="M393.12,733a21.58,21.58,0,0,1-7.82-10,42.12,42.12,0,0,1-2.68-15.86V696.24a43.16,43.16,0,0,1,2.68-16,20.37,20.37,0,0,1,20.16-13.61,16.53,16.53,0,0,1,9.91,3.24,22.81,22.81,0,0,1,7.23,9.2l-1.37,15a13.4,13.4,0,0,0-1.18-5.88,8.29,8.29,0,0,0-3.44-3.7,10.92,10.92,0,0,0-5.46-1.28,9.49,9.49,0,0,0-7.82,3.44q-2.77,3.44-2.78,9.65v10.8q0,6.07,2.78,9.42a9.62,9.62,0,0,0,7.82,3.33,11.13,11.13,0,0,0,5.46-1.24,8.2,8.2,0,0,0,3.44-3.6,12.69,12.69,0,0,0,1.18-5.69l.91,15.51a17.88,17.88,0,0,1-6.41,8.6,17.36,17.36,0,0,1-10.27,3A21.56,21.56,0,0,1,393.12,733Zm28.11-92.65h17.92V735.5H421.23Z"/><path d="M507.71,708.87c0,3.27.93,5.82,2.78,7.62s4.46,2.72,7.82,2.72,5.94-.93,7.75-2.78,2.72-4.5,2.72-7.95l.92,14.85a21.1,21.1,0,0,1-6.32,9.36,15.93,15.93,0,0,1-10.76,3.79q-10.94,0-16.88-7t-6-19.92V667.59h17.93Zm21.07-41.28h17.86V735.5H528.78Z"/><path d="M592,667.59h33.24V682.9H592Zm11.15,63.69Q599,726.74,599,717.84v-70H617v65.56a6.34,6.34,0,0,0,1,3.82,3.33,3.33,0,0,0,2.88,1.35h4.45v17.27h-9Q607.34,735.83,603.19,731.28Z"/><path d="M666.75,667.59h16.88l22.83,59-11.32,14.46Zm62.74,0L699.26,751.4a21.54,21.54,0,0,1-4.22,7.36,14.26,14.26,0,0,1-6.21,3.9,30.66,30.66,0,0,1-9.13,1.17h-4v-17.4h4a8.55,8.55,0,0,0,4.81-1.28,7.7,7.7,0,0,0,2.91-4.15l25.19-73.41Z"/><path d="M826.17,662.55l46.39,29.38H844.17l-18-8.25Zm18,29.38h28.39l-46.39,29.44V700.76Z"/><polyline class="cls-1" points="524.5 199 524.5 128 279.5 128 279.5 306.5 524.5 306.5 524.5 236.5"/><rect class="cls-1" x="600" y="128" width="249.5" height="176.5"/><polyline class="cls-1" points="716 463 849.5 463 849.5 373 611 373 611 554 849.5 554 849.5 518"/><polyline class="cls-1" points="524.5 363 524.5 554 275.5 554 275.5 413.5 451 413.5"/><path d="M543.33,636a12.27,12.27,0,0,1-5.5-5,16,16,0,0,1-1.88-8v-5.53a15.68,15.68,0,0,1,1.88-7.9,12.24,12.24,0,0,1,5.5-5,22.89,22.89,0,0,1,17.41,0,12.27,12.27,0,0,1,5.49,5,15.58,15.58,0,0,1,1.88,7.9V623a15.67,15.67,0,0,1-1.88,7.93,12.35,12.35,0,0,1-5.49,5,22.77,22.77,0,0,1-17.41,0Zm13.3-8.49a5.89,5.89,0,0,0,1.65-4.46v-5.63a5.81,5.81,0,0,0-1.65-4.42,6.45,6.45,0,0,0-4.63-1.57,6.32,6.32,0,0,0-4.58,1.57,5.85,5.85,0,0,0-1.64,4.42V623a6,6,0,0,0,1.62,4.46,6.29,6.29,0,0,0,4.6,1.59A6.41,6.41,0,0,0,556.63,627.5Z"/><path d="M579.8,603.28h20.07v7.65H579.8Zm4-4.62q0-4.51,2.28-6.75c1.52-1.5,3.86-2.24,7-2.24h6.82v8h-4.16a1.84,1.84,0,0,0-1.58.72,3,3,0,0,0-.54,1.86v37h-9.84Z"/></svg>